# xmcd
#
# Track frame offsets: 
#        150
#        12073
#        36915
#        51717
#        70302
#        94278
#        112312
#        124441
#        139914
#        155463
#        168701
#        182672
#        201587
#        216768
#        229936
#        242986
#
# Disc length: 3508 seconds
#
# Revision: 0
# Processed by: cddbd v1.5.1PL0 Copyright (c) Steve Scherf et al.
# Submitted via: ExactAudioCopy v0.95a5
#
DISCID=030db210
DTITLE=Various Artist - Flatpicking Favorites
DYEAR=2004
DGENRE=Bluegrass
TTITLE0=Wheel Hoss (Brad Davis and Bryan Sutton)
TTITLE1=Farewell Blues (David Grier and Jim Hurst)
TTITLE2=Cherokee Shuffle (Kenny Smith and Scott Fore)
TTITLE3=Lonesome Fiddle Blues (Tim May and Cody Kilby)
TTITLE4=Gold Rush (Cody Kilby and Brad Davis)
TTITLE5=Lonesome Rueben (Wyatt Rice and Larry Keel)
TTITLE6=Big Sandy River (Steve Kaufman and Roy Curry)
TTITLE7=Bill Cheathum (Chris Eldridge and Andy Falco)
TTITLE8=Arkansas Traveler (Bull Harman and Cecil Tinnon)
TTITLE9=Leather Britches (Robin Kessinger and Mark Cosgrove)
TTITLE10=Salt Creek (Jim Nunally and Scott Nygaard)
TTITLE11=Forked Deer (Jim Hurst and Tim Stafford)
TTITLE12=Panhandle Rag (Mike Maddux and Gary Cook)
TTITLE13=Flop-Eared Mule (Robin Kessinger and Kenny Smith)
TTITLE14=Cattle in the Cane (Mark Cosgrove and Scott Fore)
TTITLE15=Back Up and Push (Bryan Sutton and David Grier)
EXTD=
EXTT0=
EXTT1=
EXTT2=
EXTT3=
EXTT4=
EXTT5=
EXTT6=
EXTT7=
EXTT8=
EXTT9=
EXTT10=
EXTT11=
EXTT12=
EXTT13=
EXTT14=
EXTT15=
PLAYORDER=
